<svg width="104" height="108" viewBox="0 0 104 108" fill="none" xmlns="http://www.w3.org/2000/svg">
<path d="M2.35375 72.232C3.71097 86.3054 18.2499 99.9727 25.3497 105.047C27.294 106.511 41.9249 107.077 51.3974 107.077C60.8698 107.077 90.302 98.9579 96.7298 90.162C103.158 81.3662 103.834 72.232 103.834 64.1128V45.5062C102.03 38.6274 98.083 24.1932 96.7298 21.4868C95.0383 18.1038 77.7849 3.21848 64.5911 1.18862C54.0361 -0.435261 40.5717 0.512004 35.1589 1.18862C30.9865 1.86523 20.9502 4.43632 14.1842 9.30786C7.41814 14.1794 2.34703 27.8017 0.657227 34.0039C0.657227 40.8827 0.996531 58.1586 2.35375 72.232Z" fill="white"/>
</svg>
