<svg width="519" height="540" viewBox="0 0 519 540" fill="none" xmlns="http://www.w3.org/2000/svg">
<path d="M45.1736 312.615L40.3479 354.153L47.6901 394.999L77.3141 396.884L111.117 405.225C123.797 408.735 152.137 416.221 164.057 418.085C178.957 420.416 227.703 427.888 240.456 431.256C250.659 433.951 285.393 431.211 301.485 429.503C308.872 430.099 324.208 430.615 326.463 427.914C328.718 425.213 345.939 402.001 354.267 390.733L381.859 385.124C387.565 383.777 400.056 380.245 404.367 376.888C409.756 372.692 423.03 353.24 431.133 337.56C439.237 321.88 443.908 307.648 451.502 298.147C459.095 288.647 464.833 274.429 468.538 252.717C471.503 235.348 453.67 216.394 444.383 209.089L420.539 189.786C409.51 185.16 388.239 174.382 391.393 168.279C394.546 162.177 390.754 141.816 388.463 132.399L376.655 106.428C373.815 100.844 362.154 87.1209 338.231 76.9053C308.327 64.1359 299.789 96.2379 280.781 82.1192C261.774 68.0004 225.637 74.5629 217.43 82.1347C209.222 89.7065 187.141 113.736 173.774 108.439C163.081 104.201 149.356 110.676 143.831 114.443C137.489 126.022 123.485 152.149 118.206 164.027C111.607 178.873 112.059 176.959 95.6153 194.236C79.1714 211.513 69.2006 239.115 57.6216 259.443C48.3584 275.706 45.4632 301.667 45.1736 312.615Z" fill="#18A53F"/>
<path d="M150.256 290.912L107.382 332.657L99.2209 336.427L132.157 325.935L186.741 278.704L276.922 233.006L324.732 217.776L336.89 178.795C329.052 184.802 310.458 198.683 298.792 206.145C287.126 213.606 247.121 228.847 228.577 235.535L150.256 290.912Z" fill="#C4C4C4"/>
</svg>
