<svg width="158" height="215" viewBox="0 0 158 215" fill="none" xmlns="http://www.w3.org/2000/svg">
<path d="M120.514 205.129L49.6867 200.856C45.3651 200.595 36.7696 198.794 33.0121 197.925C10.1341 193.904 -6.50237 176.419 -11.9609 168.179L-2.74795 153.486C4.23499 154.713 27.7524 162.283 38.6382 165.915L43.5841 137.776C29.8183 137.855 3.87263 120.941 -7.37946 112.473L-3.31376 89.3413C3.23962 86.5456 34.3344 99.6858 49.0626 106.605L54.0084 78.4656C48.1867 74.9431 22.6999 50.9137 10.6842 39.3393L19.048 29.4768C26.333 26.8298 51.6723 41.1295 63.4314 48.6102L111.088 24.2826C136.79 16.2636 148.448 25.6255 151.065 31.3089C145.836 38.0208 106.829 48.516 87.9785 52.9246L83.9128 76.0566L87.4195 76.6729C94.2035 67.7613 130.256 61.9451 146.186 59.0672L146.913 83.7229C145.519 91.6538 103.417 100.833 82.5407 104.431L78.475 127.563C86.9806 125.243 124.005 118.078 141.454 114.786L137.388 137.918C130.666 146.547 91.4395 156.641 72.6668 160.609L70.1113 175.149C78.0558 172.73 110.431 174.741 125.625 176.049L120.514 205.129Z" fill="#8F8F8F"/>
</svg>
