<svg width="215" height="238" viewBox="0 0 215 238" fill="none" xmlns="http://www.w3.org/2000/svg">
<path d="M177.775 117.505C170.723 114.663 140.59 124.252 126.405 129.402L181.812 91.911C186.815 82.4461 181.478 78.4146 178.185 77.5819L163.71 71.7479C158.601 69.6888 128.035 78.8138 113.39 83.6337L141.985 67.9404L156.07 55.8017C159.922 50.9207 163.575 38.932 147.369 30.025C131.164 21.1179 96.0306 40.3456 80.4895 51.0728L39.0578 86.3365C36.6581 91.3079 33.1043 113.795 31.6274 124.417C28.8664 137.161 39.0612 171.458 44.5038 187.014C51.9601 203.876 61.047 205.724 64.6584 204.54L95.191 197.545C149.025 184.799 177.689 147.161 185.292 129.935L177.775 117.505Z" fill="#8F8F8F"/>
</svg>
