<svg width="179" height="215" viewBox="0 0 179 215" fill="none" xmlns="http://www.w3.org/2000/svg">
<path d="M142.041 205.305L71.214 201.033C66.8925 200.772 58.297 198.97 54.5394 198.102C31.6614 194.081 15.025 176.596 9.56649 168.356L18.7794 153.662C25.7623 154.89 49.2797 162.46 60.1655 166.092L65.1114 137.952C51.3456 138.032 25.4 121.117 14.1479 112.65L18.2136 89.518C24.767 86.7224 55.8617 99.8626 70.5899 106.782L75.5358 78.6423C69.714 75.1199 44.2272 51.0905 32.2115 39.5161L40.5753 29.6536C47.8603 27.0066 73.1997 41.3063 84.9587 48.787L132.615 24.4593C158.318 16.4403 169.976 25.8023 172.592 31.4857C167.363 38.1976 128.356 48.6928 109.506 53.1014L105.44 76.2333L108.947 76.8497C115.731 67.9381 151.783 62.1218 167.713 59.244L168.441 83.8997C167.047 91.8306 124.945 101.01 104.068 104.608L100.002 127.74C108.508 125.419 145.532 118.255 162.981 114.962L158.915 138.094C152.193 146.724 112.967 156.817 94.1942 160.785L91.6386 175.326C99.5831 172.906 131.958 174.917 147.152 176.225L142.041 205.305Z" fill="#8F8F8F"/>
</svg>
