<svg width="126" height="246" viewBox="0 0 126 246" fill="none" xmlns="http://www.w3.org/2000/svg">
<path d="M2.7068 194.835C4.0948 178.75 18.901 168.319 26.1306 165.114L38.3874 162.322C35.1086 162.322 27.0279 161.855 20.9356 159.988C13.3203 157.654 5.73972 147.294 2.7068 138.342C0.280464 131.18 1.69583 122.143 2.7068 118.519C5.08117 111.378 10.7818 95.0511 14.5895 86.8661C18.3972 78.6811 29.9259 77.0758 35.2143 77.2963C32.1864 75.9006 24.5455 72.9 18.2053 72.0626C11.8652 71.2252 7.25318 66.4801 5.73972 64.2122C3.48898 62.8165 -0.268635 53.9542 2.7068 29.6702C5.68223 5.38612 23.6281 0.0129232 32.2292 0.36183C37.108 1.61792 61.2709 4.02539 72.7424 5.07211L103.906 5.07211C115.126 5.07211 121.393 21.4708 123.124 29.6702C123.124 42.0565 121.566 68.9224 115.333 77.2963C109.339 85.3498 101.583 85.9806 98.072 85.241C104.347 86.9406 114.562 99.4094 118.969 105.558C120.354 110.094 122.293 121.991 118.969 133.296C115.645 144.601 105.465 155.801 100.79 159.988C107.542 159.988 119.489 170.978 123.124 175.689C126.76 180.399 126.241 216.511 123.124 229.595C120.631 240.062 99.9244 244.424 89.8827 245.296C70.3671 245.376 27.6921 244.487 13.1174 240.291C-5.10099 235.046 0.971807 214.941 2.7068 194.835Z" fill="white"/>
</svg>
