<svg width="135" height="135" viewBox="0 0 135 135" fill="none" xmlns="http://www.w3.org/2000/svg">
<path d="M0.874023 48.2186V96.8156C2.51123 100.085 6.49901 107.605 9.35242 111.529C12.2058 115.452 24.8084 124.161 30.753 128.025C37.5893 129.808 53.5803 133.643 62.8539 134.713C72.1274 135.783 89.0101 130.7 96.2923 128.025C101.197 125.647 111.897 120 115.464 116.433C119.03 112.866 129.433 91.7628 134.189 81.657C134.486 71.4025 134.902 49.8236 134.189 45.5435C133.297 40.1934 124.826 24.5888 115.464 15.2261C107.973 7.73585 99.5618 1.99936 96.2923 0.0673828H62.8539C55.3637 0.0673828 38.3324 6.90364 30.753 10.3218C26.7404 12.8482 17.7343 18.7927 13.8109 22.3595C9.88743 25.9262 3.55154 41.085 0.874023 48.2186Z" fill="white"/>
</svg>
