<svg width="103" height="104" viewBox="0 0 103 104" fill="none" xmlns="http://www.w3.org/2000/svg">
<path d="M0.384766 36.9809V74.1119C1.63569 76.61 4.68259 82.3558 6.86277 85.3535C9.04294 88.3513 18.6721 95.0054 23.2141 97.9577C28.4374 99.3203 40.6555 102.25 47.7411 103.067C54.8267 103.885 67.726 100.002 73.29 97.9577C77.0372 96.1409 85.2129 91.8259 87.9381 89.1007C90.6633 86.3755 98.6119 70.2513 102.246 62.5298C102.473 54.6948 102.791 38.2072 102.246 34.9369C101.564 30.8491 95.0918 18.9263 87.9381 11.7726C82.2151 6.0496 75.7882 1.66657 73.29 0.19043H47.7411C42.0181 0.19043 29.0052 5.41374 23.2141 8.0254C20.1482 9.95573 13.267 14.4977 10.2693 17.2229C7.27155 19.9482 2.43055 31.5304 0.384766 36.9809Z" fill="white"/>
</svg>
