<svg width="128" height="133" viewBox="0 0 128 133" fill="none" xmlns="http://www.w3.org/2000/svg">
<path d="M2.59431 89.2318C4.26429 106.548 22.1536 123.365 30.8895 129.609C33.2818 131.41 51.2843 132.107 62.9395 132.107C74.5948 132.107 110.809 122.116 118.718 111.294C126.627 100.471 127.46 89.2318 127.46 79.2416V56.3473C125.24 47.8834 120.383 30.1229 118.718 26.7928C116.637 22.6302 95.4078 4.31473 79.1737 1.81712C66.1864 -0.180975 49.6192 0.984579 42.9591 1.81712C37.8252 2.64964 25.4761 5.81322 17.1509 11.8074C8.82574 17.8015 2.58604 34.5629 0.506836 42.1943C0.506836 50.6583 0.92433 71.9153 2.59431 89.2318Z" fill="white"/>
</svg>
