<svg width="126" height="127" viewBox="0 0 126 127" fill="none" xmlns="http://www.w3.org/2000/svg">
<path d="M0.134766 45.3173V91.0048C1.67396 94.0786 5.42298 101.148 8.10556 104.837C10.7881 108.525 22.6362 116.713 28.2249 120.346C34.6519 122.022 49.6855 125.627 58.4039 126.633C67.1223 127.639 82.9942 122.861 89.8404 120.346C94.451 118.11 104.511 112.801 107.864 109.448C111.217 106.094 120.997 86.2545 125.468 76.7537C125.748 67.1132 126.139 46.8262 125.468 42.8023C124.63 37.7725 116.666 23.1022 107.864 14.3C100.822 7.25819 92.9141 1.86513 89.8404 0.0488281H58.4039C51.3621 0.0488281 35.3505 6.4758 28.2249 9.68929C24.4525 12.0645 15.9856 17.6531 12.2971 21.0063C8.60855 24.3595 2.65198 38.6108 0.134766 45.3173Z" fill="white"/>
</svg>
