<svg width="95" height="98" viewBox="0 0 95 98" fill="none" xmlns="http://www.w3.org/2000/svg">
<path d="M1.57064 65.917C2.80918 78.7598 16.0768 91.2319 22.5558 95.8626C24.33 97.1982 37.6816 97.7151 46.3257 97.7151C54.9699 97.7151 81.8285 90.3058 87.6941 82.2791C93.5598 74.2524 94.1772 65.917 94.1772 58.5077V41.5282C92.5307 35.2509 88.929 22.0788 87.6941 19.6091C86.1505 16.5219 70.4058 2.93816 58.3658 1.0858C48.7337 -0.396082 36.4467 0.468351 31.5072 1.0858C27.6996 1.70324 18.541 4.04951 12.3666 8.49508C6.19218 12.9406 1.5645 25.3717 0.0224609 31.0316C0.0224609 37.3089 0.332096 53.0742 1.57064 65.917Z" fill="white"/>
</svg>
