<svg width="94" height="94" viewBox="0 0 94 94" fill="none" xmlns="http://www.w3.org/2000/svg">
<path d="M0.545898 33.5724V67.4566C1.68744 69.7363 4.46791 74.9796 6.45745 77.7152C8.44698 80.4508 17.2341 86.523 21.379 89.2172C26.1456 90.4607 37.2953 93.1341 43.7612 93.8802C50.2272 94.6263 61.9987 91.0824 67.0761 89.2172C70.4956 87.5593 77.9564 83.6216 80.4433 81.1347C82.9302 78.6478 90.1837 63.9335 93.4996 56.8873C93.7069 49.7374 93.997 34.6915 93.4996 31.7072C92.8779 27.9768 86.9715 17.0965 80.4433 10.5684C75.2208 5.34585 69.3558 1.34609 67.0761 -0.000976562H43.7612C38.5387 -0.000976562 26.6637 4.76559 21.379 7.14888C18.5812 8.91042 12.3017 13.0552 9.5661 15.5422C6.83048 18.0291 2.41279 28.5985 0.545898 33.5724Z" fill="white"/>
</svg>
