<svg width="109" height="112" viewBox="0 0 109 112" fill="none" xmlns="http://www.w3.org/2000/svg">
<path d="M2.55839 75.4138C3.97542 90.1074 19.155 104.377 26.5677 109.675C28.5976 111.203 43.8733 111.794 53.7631 111.794C63.653 111.794 94.3822 103.317 101.093 94.134C107.804 84.9505 108.511 75.4138 108.511 66.9369V47.5103C106.627 40.3284 102.506 25.2582 101.093 22.4325C99.3271 18.9004 81.3134 3.35915 67.5383 1.23985C56.5182 -0.455589 42.4604 0.533418 36.8091 1.23985C32.4529 1.94627 21.9743 4.63066 14.9101 9.71687C7.84595 14.8031 2.55137 29.0256 0.787109 35.5011C0.787109 42.683 1.14137 60.7203 2.55839 75.4138Z" fill="white"/>
</svg>
