<svg width="108" height="108" viewBox="0 0 108 108" fill="none" xmlns="http://www.w3.org/2000/svg">
<path d="M0.661133 38.6968V77.464C1.96718 80.0722 5.14834 86.0712 7.42459 89.201C9.70084 92.3308 19.7543 99.2781 24.4965 102.361C29.95 103.783 42.7064 106.842 50.1042 107.696C57.502 108.549 70.9698 104.495 76.779 102.361C80.6913 100.464 89.2272 95.9586 92.0726 93.1133C94.9179 90.268 103.217 73.4333 107.01 65.3715C107.248 57.1913 107.579 39.9772 107.01 36.5628C106.299 32.2948 99.5415 19.8466 92.0726 12.3777C86.0974 6.40251 79.3872 1.82635 76.779 0.285156H50.1042C44.1291 0.285156 30.5427 5.73864 24.4965 8.46537C21.2955 10.4808 14.1111 15.2229 10.9812 18.0682C7.85139 20.9135 2.79707 33.0061 0.661133 38.6968Z" fill="white"/>
</svg>
