<svg width="136" height="141" viewBox="0 0 136 141" fill="none" xmlns="http://www.w3.org/2000/svg">
<path d="M2.31806 94.7389C4.09439 113.158 23.1229 131.046 32.4151 137.687C34.9598 139.603 54.1087 140.344 66.5062 140.344C78.9037 140.344 117.425 129.718 125.837 118.206C134.25 106.694 135.135 94.7389 135.135 84.1125V59.7603C132.774 50.7573 127.608 31.8659 125.837 28.3237C123.623 23.896 101.042 4.41416 83.7742 1.75749C69.9598 -0.367843 52.3376 0.871935 45.2533 1.75749C39.7925 2.64303 26.6571 6.00807 17.8017 12.3839C8.94633 18.7598 2.30927 36.5886 0.0976562 44.706C0.0976562 53.7089 0.541737 76.3197 2.31806 94.7389Z" fill="white"/>
</svg>
