<svg width="597" height="536" viewBox="0 0 597 536" fill="none" xmlns="http://www.w3.org/2000/svg">
<path d="M74.1835 292.333L46 272.12L74.1835 253.666C107.847 252.787 158.476 258.939 205.341 275.133C212.126 275.133 230.915 293.739 234.673 299.363C238.431 304.987 255.549 321.04 263.639 328.363L319.223 371.424L314.888 345.406C311.756 333.689 276.274 299.363 280.325 305.515L244.067 250.832L220.572 201.575C221.616 195.131 231.698 184.259 226.061 177.932C220.424 171.604 197.617 89.7172 197.095 78C204.141 81.2222 239.683 144.872 244.067 152.605C248.451 160.338 263.117 181.605 269.902 191.272C276.426 198.595 291.353 214.648 298.868 220.272C306.384 225.896 320.267 248.393 326.269 258.939L335.664 313.424L345.841 305.515C350.799 292.919 361.342 265.969 363.847 258.939C366.979 250.151 380.287 237.848 383.419 236.09L407.251 184.208L429.121 103.468L461.52 236.09L375.812 345.406C417.991 354.601 421.87 367.03 429.121 371.424C437.323 385.484 475.965 407.747 485.359 418L514.159 448.757L558 505C545.474 501.778 517.604 494.63 506.33 491.818C495.057 489.006 490.673 484.788 489.89 483.03L375.812 424.218L332.532 385.484L305.914 396.03C262.034 418 156.291 461.939 84.3609 461.939L103.15 434.697L114.11 418L149.339 396.03C154.559 390.464 166.25 377.751 171.26 371.424C176.27 365.097 190.571 363.515 197.095 363.515L263.639 371.424V363.515C256.071 359.121 236.239 348.4 217.45 340.666C198.661 332.933 167.346 332.757 154.037 333.636L74.1835 292.333Z" fill="#0A6C35"/>
</svg>
