<svg width="3764" height="5653" viewBox="0 0 3764 5653" fill="none" xmlns="http://www.w3.org/2000/svg">
<path d="M2827.05 3073.85L2656.96 3251.35L2499.15 3410.94L2397.88 3247.8L2012.18 2983.84C1842.24 2904.41 1479.05 2745.63 1385.85 2745.96C1292.65 2746.28 1011.23 2618.94 882.165 2555.23L659.799 2385.07C629.623 2349.01 604.2 2242.88 743.924 2106.84C883.647 1970.8 1133.73 1995 1241.3 2024.11L2120.77 2556.86L1767.24 2231.84C1669.32 2117.98 1432.09 1868.7 1266.45 1782.49C1059.41 1674.72 725.028 1286.44 670.5 1104.56C626.878 959.044 745.744 855.811 810.629 822.382C856.854 790.265 1003.11 733.719 1218.36 764.479C1433.6 795.24 1772.77 1187.4 1915.45 1379.63C1975.03 1469.35 2101.73 1687.25 2131.86 1841.13C2162 1995.01 2307.13 2242.57 2375.93 2347.11C2462.99 2276.64 2403.79 1953.14 2363.32 1800.19L2313.9 1193.93C2324.6 1135.93 2364.53 1008.41 2438.7 962.369C2512.86 916.331 2686.79 979.588 2764.48 1016.97L3003.85 1402.59C3048.04 1473.78 3037.87 1908.82 3027.27 2117.45L2855.86 2593.68C2792.55 2667.22 2673.3 2826.17 2702.76 2873.63L2827.05 3073.85Z" fill="#18A53F"/>
</svg>
