<svg width="7021" height="6448" viewBox="0 0 7021 6448" fill="none" xmlns="http://www.w3.org/2000/svg">
<path d="M1610.64 4910.1L1169.01 5409.91L1296.3 5528.5L1569.39 5101.5L1953.87 4714.14L2224.73 4995.79C2267.08 5042.99 2359.51 5145.1 2390.48 5175.98C2421.45 5206.85 2566.85 5237.76 2635.68 5249.35L2779.89 5354.91L2913.32 5423.16L3172.22 5269.35L3095.05 5169.17L2763.43 4820.29C2689.46 4767.04 2524.9 4648.28 2458.35 4599.2C2391.8 4550.13 2218.96 4506.15 2140.86 4490.3L2333.48 4262.11L2597.25 4172.96L2884.77 4464.58L3090.5 4568.36C3155.27 4609.68 3295.9 4702.04 3340.2 4740.89C3384.5 4779.74 3566.56 4832.58 3652.05 4854.14L4011.82 4679.65L3879.53 4507.9C3814.92 4451.24 3663.51 4323.1 3574.71 4263.81C3485.9 4204.51 3204.01 4078.06 3074.17 4022.24L2666.44 3982.84L2925.85 3783.03L3360.06 3448.56L3392.76 3526L3541.58 3719.22L3924.72 3960C3986.2 3962.05 4125.8 3978.42 4192.35 4027.5C4258.9 4076.57 4457.89 4115.61 4549.07 4129L5013.44 4101.97L4764.88 3825.94C4677.89 3771.33 4491.75 3648.65 4443.14 3594.88C4394.53 3541.1 4111.33 3432.39 3975.8 3384.75L3568.46 3310.85L3793.14 3217.6L4310.42 2955.98L4492.83 3146.13L4691.27 3403.76C4770.64 3506.81 4976 3610.11 5068.76 3648.88L5493.78 3640.76L5776.12 3389.08C5736.44 3337.55 5493.65 3146.77 5377.22 3057.83C5310.56 3017.95 5166.13 2933.09 5121.62 2912.64C5077.12 2892.19 4853.48 2891.14 4747.23 2893.17L5063.02 2649.92L5319.5 2714.61L5654.3 2775.99C5695.1 2793.97 5812.6 2820.53 5956.15 2782.93C6099.7 2745.33 6289.98 2594.2 6367.17 2523.34L6486.23 2374.62L6513.87 1897.25L6312.64 1892.63L5893.13 1907.91L5449.03 2124.56L5031.09 2503.49L4957.78 2559.96L4598.4 2699.95L4634.52 2466.89L4785.71 1939.96L4673.64 1456.19L4470.25 1647.06C4421.25 1696.2 4307.41 1811.26 4244.05 1878.31C4180.69 1945.35 4152.13 2101.14 4145.77 2170.64L4311.94 2817.98L3879.38 3002.95L3502.44 3213.47C3520.79 3171.97 3632.51 2911.85 3686.07 2786.98L3752.04 2382.7L3466.55 1907.08L3354.28 1947.96C3339.03 1978.71 3290.41 2061 3217.92 2144.2C3127.31 2248.2 3034.03 2593.7 3044.04 2700.01C3052.05 2785.06 3206.61 3167.69 3282.89 3348.38L2967.73 3534.12L2786.65 3730.62C2778.69 3607.53 2753.97 3347.59 2718.8 3292.59C2683.62 3237.59 2536.12 2958.22 2466.76 2825.41L2406.89 2677.69L2257.3 2553.48C2251.28 2592.32 2214.82 2754.95 2117.13 3094.72C2019.45 3434.49 2311.99 3845.39 2470.47 4008.37L2284.38 4151.71L2040.87 4430.48L2014.08 4325.7C2038.06 4179.53 1825 3726.41 1715.48 3518.12L1122.63 3028.4L1069.08 3320.49L1138.71 3597.52C1169.65 3664.91 1255.6 3847.26 1351.9 4037.61C1448.21 4227.96 1753.34 4477.13 1893.87 4577.92L1610.64 4910.1Z" fill="#18A53F"/>
</svg>
