<svg width="231" height="280" viewBox="0 0 231 280" fill="none" xmlns="http://www.w3.org/2000/svg">
<path d="M220.503 59.2345L199.278 45.2569C195.319 50.7896 186.596 63.5985 183.379 70.5723C180.162 77.5461 135.088 132.385 128.22 138.976L183.177 37.8285L144.259 19.8739L96.1396 124.176C98.367 113.817 114.862 66.4508 115.505 62.8439C116.149 59.237 120.558 28.8485 122.682 14.1051L100.594 3.91462L87.1057 49.7418C85.8373 57.5606 82.6695 75.6721 80.1451 85.5681C77.6207 95.4641 74.9685 126.284 73.9579 140.457C70.2352 156.36 62.3073 190.873 60.3769 201.693C58.4465 212.514 57.8402 235.765 57.7783 246.038L75.1335 254.045L129.008 197.572L154.763 167.163C160.816 159.112 174.086 141.595 178.739 135.934C184.555 128.858 200.394 102.821 208.716 94.4607C215.373 87.7725 223.927 73.0137 227.373 66.4704L220.503 59.2345Z" fill="#0A6C35"/>
</svg>
