<svg width="187" height="164" viewBox="0 0 187 164" fill="none" xmlns="http://www.w3.org/2000/svg">
<path d="M113.415 30.2025C115.426 19.7705 132.123 11.0055 140.219 7.92704C143.029 11.1538 149.836 19.3899 154.591 26.5199C159.346 33.65 164.153 50.6954 165.962 58.3268C166.186 66.1568 166.642 83.6906 166.671 91.1857C166.7 98.6807 161.186 103.632 158.426 105.171C153.394 110.649 142.791 122.57 140.639 126.43C138.487 130.29 111.523 135.551 98.3104 137.699L67.9006 145.259C60.0823 146.03 42.9563 147.112 36.9991 145.268C29.5527 142.964 26.9239 120.173 26.853 116.887C26.782 113.601 29.2949 100.561 33.2096 99.162C36.3414 98.0424 46.4666 88.904 51.1377 84.4747C48.6201 82.0635 42.6478 76.4723 38.8996 73.3973C35.1513 70.3223 35.0967 59.6723 35.538 54.7316C41.4336 53.7277 53.9101 51.475 56.6504 50.4953C59.3906 49.5157 67.954 53.8127 71.8931 56.0837L80.8004 34.6876L92.1568 20.1422C97.7773 18.5744 108.671 26.1958 113.415 30.2025Z" fill="#18A53F"/>
</svg>
