<svg width="512" height="468" viewBox="0 0 512 468" fill="none" xmlns="http://www.w3.org/2000/svg">
<path d="M28.1835 234.913L0 212.76L28.1835 192.533C61.8471 191.57 112.476 198.312 159.341 216.061C166.126 216.061 184.915 236.454 188.673 242.618C192.431 248.782 209.549 266.376 217.639 274.403L273.223 321.598L268.888 293.082C265.756 280.24 230.274 242.618 234.325 249.36L198.067 189.427L174.572 135.441C175.616 128.377 185.698 116.462 180.061 109.527C174.424 102.592 151.617 12.8423 151.095 0C158.141 3.53163 193.683 73.2925 198.067 81.7684C202.451 90.2443 217.117 113.553 223.902 124.148C230.426 132.174 245.353 149.768 252.868 155.933C260.384 162.097 274.267 186.754 280.269 198.312L289.664 258.029L299.841 249.36C304.799 235.555 315.342 206.018 317.847 198.312C320.979 188.68 334.287 175.196 337.419 173.27L361.251 116.406L383.121 27.9137L415.52 173.27L329.812 293.082C371.991 303.16 375.87 316.782 383.121 321.598C391.323 337.009 429.965 361.409 439.359 372.646L468.159 406.357L512 468C499.474 464.468 471.604 456.635 460.33 453.552C449.057 450.47 444.673 445.847 443.89 443.921L329.812 379.461L286.532 337.009L259.914 348.567C216.034 372.646 110.291 420.805 38.3609 420.805L57.1498 390.946L68.1101 372.646L103.339 348.567C108.559 342.467 120.25 328.533 125.26 321.598C130.27 314.663 144.571 312.929 151.095 312.929L217.639 321.598V312.929C210.071 308.114 190.239 296.363 171.45 287.887C152.661 279.411 121.346 279.218 108.037 280.182L28.1835 234.913Z" fill="#0A6C35"/>
</svg>
