<svg width="348" height="292" viewBox="0 0 348 292" fill="none" xmlns="http://www.w3.org/2000/svg">
<path d="M77.3675 12.4567L59.2283 38.3492C65.9665 43.4701 81.5822 54.7742 90.139 59.0241C98.6957 63.274 165.276 121.281 173.226 130.056L49.416 58.1053L25.6992 105.856L153.676 169.419C140.875 166.279 82.5654 144.076 78.1034 143.147C73.6414 142.218 36.0118 135.649 17.7548 132.48L4.29399 159.583L60.7966 177.992C70.4736 179.849 92.8814 184.435 105.097 187.928C117.312 191.42 155.54 195.82 173.127 197.583C192.77 202.78 235.402 213.872 248.788 216.659C262.174 219.446 291.065 221.031 303.836 221.475L314.413 200.18L246.116 131.171L209.224 98.0588C199.429 90.2442 178.121 73.118 171.248 67.1301C162.657 59.6452 130.847 39.0185 120.749 28.3725C112.67 19.8557 94.6239 8.69069 86.6105 4.17281L77.3675 12.4567Z" fill="#0A6C35"/>
</svg>
