<svg width="2972" height="3120" viewBox="0 0 2972 3120" fill="none" xmlns="http://www.w3.org/2000/svg">
<path d="M2232.16 2427.32L2097.87 2567.46L1973.29 2693.46L1893.33 2564.65L1588.82 2356.25C1454.65 2293.55 1167.92 2168.19 1094.34 2168.45C1020.75 2168.71 798.572 2068.17 696.679 2017.87L521.122 1883.53C497.298 1855.06 477.227 1771.27 587.539 1663.87C697.85 1556.46 895.288 1575.57 980.218 1598.55L1674.56 2019.16L1395.44 1762.56C1318.14 1672.66 1130.84 1475.85 1000.07 1407.79C836.612 1322.71 572.62 1016.17 529.571 872.567C495.131 757.686 588.975 676.183 640.202 649.792C676.696 624.435 792.168 579.792 962.103 604.077C1132.04 628.363 1399.81 937.97 1512.45 1089.74C1559.49 1160.57 1659.52 1332.6 1683.31 1454.09C1707.11 1575.58 1821.69 1771.03 1876.01 1853.56C1944.73 1797.92 1898 1542.52 1866.04 1421.77L1827.03 943.13C1835.48 897.335 1867 796.658 1925.56 760.311C1984.11 723.964 2121.43 773.905 2182.76 803.42L2371.74 1107.86C2406.63 1164.07 2398.61 1507.53 2390.23 1672.24L2254.91 2048.23C2204.93 2106.29 2110.78 2231.78 2134.04 2269.25L2232.16 2427.32Z" fill="#18A53F"/>
</svg>
