<svg width="360" height="408" viewBox="0 0 360 408" fill="none" xmlns="http://www.w3.org/2000/svg">
<path d="M164.468 365.906L136.793 365.941L111.529 365.578L116.875 344.632L108.221 292.734C101.414 272.743 85.9777 230.877 78.6821 223.336C71.3865 215.795 59.7749 183.018 54.8811 167.572L51.3518 136.249C51.9254 130.987 58.5581 120.646 80.4996 121.378C102.441 122.11 119.981 144.3 126.008 155.303L151.352 268.249L150.164 214.2C151.771 197.37 153.504 158.669 147.584 138.499C140.184 113.287 145.626 55.8593 156.138 37.2468C164.549 22.3567 182.2 23.9547 189.974 26.6149C196.187 27.8625 212.185 35.3257 226.475 55.1981C240.766 75.0706 235.383 133.189 230.906 159.765C228.27 171.599 220.462 198.879 210.32 213.327C200.179 227.776 191.402 258.865 188.281 272.603C200.792 274.174 222.437 244.138 231.695 228.924L277.058 177.628C282.601 173.972 296.067 167.269 305.589 169.699C315.111 172.129 323.541 191.182 326.566 200.404L313.93 249.912C311.598 259.051 275.488 292.156 257.725 307.566L205.696 330.794C194.788 331.391 172.584 334.107 171.029 340.2L164.468 365.906Z" fill="#0A6C35"/>
</svg>
