<svg width="241" height="243" viewBox="0 0 241 243" fill="none" xmlns="http://www.w3.org/2000/svg">
<path d="M39.0605 37.3563L1.75118 44.1785L13.482 108.332C19.4011 125.274 34.4805 165.055 47.4449 188.64C60.4092 212.224 111.975 221.823 136.137 223.674C140.039 223.588 151.873 222.302 167.986 217.851C188.128 212.287 217.201 160.42 218.431 108.003C219.415 66.0687 203.909 24.2973 196.033 8.65339L172.118 6.44335L168.449 102.096L142.089 11.9343L100.029 26.2079L105.687 57.1474L121.328 142.686L111.084 158.665L88.3712 34.4523L68.8066 38.0298L72.9948 130.365L39.0605 37.3563Z" fill="#18A53F"/>
</svg>
